<?xml version="1.0" encoding="iso-8859-1"?>
<!-- Generator: Adobe Illustrator 19.0.0, SVG Export Plug-In . SVG Version: 6.00 Build 0)  -->
<svg version="1.1" id="Layer_1" xmlns="http://www.w3.org/2000/svg" xmlns:xlink="http://www.w3.org/1999/xlink" x="0px" y="0px"
	 viewBox="0 0 512 512" style="enable-background:new 0 0 512 512;" xml:space="preserve">
<g>
	<g>
		<path d="M256,0C114.842,0,0,114.842,0,256s114.842,256,256,256s256-114.842,256-256S397.158,0,256,0z M256,465.455
			c-115.493,0-209.455-93.961-209.455-209.455S140.507,46.545,256,46.545S465.455,140.507,465.455,256S371.493,465.455,256,465.455z
			"/>
	</g>
</g>
<g>
	<g>
		<path d="M397.404,175.168c-0.112-0.206-0.202-0.419-0.32-0.622c-0.16-0.276-0.344-0.528-0.513-0.794
			c-28.321-48.216-80.725-80.66-140.57-80.66s-112.249,32.442-140.569,80.657c-0.169,0.268-0.355,0.52-0.515,0.796
			c-0.118,0.205-0.208,0.417-0.32,0.622C100.92,199.002,93.091,226.603,93.091,256c0,29.412,7.837,57.029,21.529,80.873
			c0.104,0.192,0.188,0.391,0.298,0.582c0.261,0.453,0.537,0.891,0.822,1.319c28.391,47.926,80.631,80.136,140.26,80.136
			c59.631,0,111.87-32.209,140.26-80.137c0.286-0.427,0.56-0.866,0.821-1.317c0.11-0.191,0.194-0.389,0.298-0.582
			c13.694-23.844,21.53-51.461,21.53-80.873C418.909,226.603,411.08,199.002,397.404,175.168z M139.636,256
			c0-12.874,2.133-25.252,6.012-36.839L209.455,256l-63.806,36.839C141.77,281.252,139.636,268.875,139.636,256z M232.727,370.022
			c-25.139-5.123-47.34-18.392-63.761-36.9l63.761-36.813V370.022z M232.727,215.69l-63.761-36.813
			c16.421-18.508,38.622-31.775,63.761-36.9V215.69z M279.273,141.979c25.139,5.123,47.34,18.39,63.761,36.9l-63.761,36.813V141.979
			z M279.273,370.022V296.31l63.761,36.813C326.613,351.631,304.412,364.899,279.273,370.022z M366.352,292.839L302.545,256
			l63.806-36.839c3.879,11.587,6.012,23.965,6.012,36.839C372.364,268.875,370.23,281.252,366.352,292.839z"/>
	</g>
</g>
<g>
</g>
<g>
</g>
<g>
</g>
<g>
</g>
<g>
</g>
<g>
</g>
<g>
</g>
<g>
</g>
<g>
</g>
<g>
</g>
<g>
</g>
<g>
</g>
<g>
</g>
<g>
</g>
<g>
</g>
</svg>
