<?xml version="1.0" encoding="UTF-8" standalone="no"?>
<svg
   xmlns:dc="http://purl.org/dc/elements/1.1/"
   xmlns:cc="http://creativecommons.org/ns#"
   xmlns:rdf="http://www.w3.org/1999/02/22-rdf-syntax-ns#"
   xmlns:svg="http://www.w3.org/2000/svg"
   xmlns="http://www.w3.org/2000/svg"
   xmlns:sodipodi="http://sodipodi.sourceforge.net/DTD/sodipodi-0.dtd"
   xmlns:inkscape="http://www.inkscape.org/namespaces/inkscape"
   id="Capa_1"
   enable-background="new 0 0 510.03 510.03"
   height="512"
   viewBox="0 0 510.03 510.03"
   width="512"
   version="1.1"
   sodipodi:docname="lime.svg"
   inkscape:version="1.0.1 (3bc2e813f5, 2020-09-07)">
  <metadata
     id="metadata11">
    <rdf:RDF>
      <cc:Work
         rdf:about="">
        <dc:format>image/svg+xml</dc:format>
        <dc:type
           rdf:resource="http://purl.org/dc/dcmitype/StillImage" />
      </cc:Work>
    </rdf:RDF>
  </metadata>
  <defs
     id="defs9" />
  <sodipodi:namedview
     pagecolor="#ffffff"
     bordercolor="#666666"
     borderopacity="1"
     objecttolerance="10"
     gridtolerance="10"
     guidetolerance="10"
     inkscape:pageopacity="0"
     inkscape:pageshadow="2"
     inkscape:window-width="1920"
     inkscape:window-height="1001"
     id="namedview7"
     showgrid="false"
     inkscape:zoom="0.81054688"
     inkscape:cx="189.82169"
     inkscape:cy="354.01661"
     inkscape:window-x="-9"
     inkscape:window-y="-9"
     inkscape:window-maximized="1"
     inkscape:current-layer="Capa_1" />
  <path
     d="m 411.966,236.414 c -42.3737,-62.82024 -98.22827,-92.56146 -151.09172,-92.56146 -50.56613,-0.43451 -123.20269,44.457 -143.79769,93.865 -18.951663,5.83283 -41.393877,32.78367 -41.125528,52.17387 0,25.28951 15.841092,45.281 38.082938,55.60759 23.003,55.185 80.659,95.046 148.966,95.046 68.314,0 125.967,-39.87 148.965,-95.046 21.492,-5.703 41.79451,-35.34599 41.79451,-55.9568 0,-26.04272 -21.35091,-47.14353 -41.79351,-53.1282 z m -12.196,80.861 -9.763,0.789 -3.203,9.257 C 369.576,377.1 319.824,410.546 263,410.546 c -56.824,0 -106.577,-33.445 -123.804,-83.225 l -3.204,-9.257 -9.763,-0.789 C 112.643,316.177 102,304.617 102,290.957 c 0,-13.659 10.643,-25.22 24.23,-26.318 l 9.763,-0.79 3.204,-9.255 c 17.228,-49.779 66.98,-83.225 123.804,-83.225 56.824,0 106.576,33.445 123.804,83.224 l 3.203,9.256 9.763,0.79 c 13.587,1.099 24.23,12.659 24.23,26.318 0,13.659 -10.645,25.22 -24.231,26.318 z"
     id="path2"
     sodipodi:nodetypes="cccccscccsccsccsscccscccss" />
  <g
     id="g846"
     transform="matrix(0.17934166,0,0,0.17934166,215.74364,249.81693)">
	<g
   id="g844">
		<path
   d="m 537.05053,81.973099 c -0.224,-0.414736 -0.404,-0.842936 -0.64,-1.251819 -0.32,-0.55591 -0.688,-1.064406 -1.026,-1.600536 -56.642,-97.124047 -161.45,-163.292582 -281.14,-164.754944 -119.69,-1.462362 -224.497999,62.141103 -281.137999,157.879081 -0.338,0.53187 -0.71,1.031325 -1.03,1.579415 -0.236,0.407117 -0.416,0.828918 -0.64,1.236181 -27.354,47.335793 -43.012,102.346483 -43.012,161.140483 0,58.824 15.674,114.24951 43.058,162.27208 0.208,0.38654 0.376,0.7866 0.596,1.17128 0.522,0.91238 1.074,1.79513 1.644,2.65809 56.782,96.54576 161.261999,162.24229 280.519999,163.69937 119.262,1.45713 223.74,-61.68436 280.52,-156.84663 0.572,-0.84701 1.12,-1.71832 1.642,-2.61394 0.22,-0.37931 0.388,-0.77326 0.596,-1.15672 27.388,-47.35337 43.06,-102.39589 43.06,-161.21989 0,-58.796 -15.658,-114.18931 -43.01,-162.191501 z M 21.514531,237.33833 c 0,-25.748 4.266,-50.45188 12.024,-73.53109 L 161.15253,239.04441 33.540531,311.16326 c -7.758,-23.26878 -12.026,-48.07493 -12.026,-73.82493 z M 207.69653,467.65709 c -50.278,-10.8603 -94.68,-37.9408 -127.521999,-75.35806 L 207.69653,320.23109 Z m 0,-308.664 L 80.174531,83.809028 C 113.01653,47.194289 157.41853,21.202789 207.69653,11.567081 Z m 93.092,-146.284619 c 50.278,10.860292 94.68,37.936792 127.522,75.358053 l -127.522,72.067946 z m 0,456.085999 v -147.424 l 127.522,75.18406 c -32.842,36.61474 -77.244,62.60824 -127.522,72.23994 z m 174.158,-152.23815 -127.614,-75.23717 127.612,-72.11885 c 7.758,23.26878 12.024,48.07691 12.024,73.82491 0.002,25.75002 -4.266,50.45187 -12.022,73.53111 z"
   id="path842"
   style="stroke-width:2" />

	</g>

</g>
  <g
     id="g848"
     transform="matrix(0.2472378,0,0,0.2472378,197.86706,232.27872)">
</g>
  <g
     id="g850"
     transform="matrix(0.2472378,0,0,0.2472378,197.86706,232.27872)">
</g>
  <g
     id="g852"
     transform="matrix(0.2472378,0,0,0.2472378,197.86706,232.27872)">
</g>
  <g
     id="g854"
     transform="matrix(0.2472378,0,0,0.2472378,197.86706,232.27872)">
</g>
  <g
     id="g856"
     transform="matrix(0.2472378,0,0,0.2472378,197.86706,232.27872)">
</g>
  <g
     id="g858"
     transform="matrix(0.2472378,0,0,0.2472378,197.86706,232.27872)">
</g>
  <g
     id="g860"
     transform="matrix(0.2472378,0,0,0.2472378,197.86706,232.27872)">
</g>
  <g
     id="g862"
     transform="matrix(0.2472378,0,0,0.2472378,197.86706,232.27872)">
</g>
  <g
     id="g864"
     transform="matrix(0.2472378,0,0,0.2472378,197.86706,232.27872)">
</g>
  <g
     id="g866"
     transform="matrix(0.2472378,0,0,0.2472378,197.86706,232.27872)">
</g>
  <g
     id="g868"
     transform="matrix(0.2472378,0,0,0.2472378,197.86706,232.27872)">
</g>
  <g
     id="g870"
     transform="matrix(0.2472378,0,0,0.2472378,197.86706,232.27872)">
</g>
  <g
     id="g872"
     transform="matrix(0.2472378,0,0,0.2472378,197.86706,232.27872)">
</g>
  <g
     id="g874"
     transform="matrix(0.2472378,0,0,0.2472378,197.86706,232.27872)">
</g>
  <g
     id="g876"
     transform="matrix(0.2472378,0,0,0.2472378,197.86706,232.27872)">
</g>
</svg>
