<?xml version="1.0" encoding="UTF-8" standalone="no"?>
<svg
   xmlns:dc="http://purl.org/dc/elements/1.1/"
   xmlns:cc="http://creativecommons.org/ns#"
   xmlns:rdf="http://www.w3.org/1999/02/22-rdf-syntax-ns#"
   xmlns:svg="http://www.w3.org/2000/svg"
   xmlns="http://www.w3.org/2000/svg"
   xmlns:xlink="http://www.w3.org/1999/xlink"
   xmlns:sodipodi="http://sodipodi.sourceforge.net/DTD/sodipodi-0.dtd"
   xmlns:inkscape="http://www.inkscape.org/namespaces/inkscape"
   id="Capa_1"
   enable-background="new 0 0 510.03 510.03"
   height="512"
   viewBox="0 0 510.03 510.03"
   width="512"
   version="1.1"
   sodipodi:docname="logoFixed.svg"
   inkscape:version="1.0.1 (3bc2e813f5, 2020-09-07)">
  <metadata
     id="metadata11">
    <rdf:RDF>
      <cc:Work
         rdf:about="">
        <dc:format>image/svg+xml</dc:format>
        <dc:type
           rdf:resource="http://purl.org/dc/dcmitype/StillImage" />
        <dc:title></dc:title>
      </cc:Work>
    </rdf:RDF>
  </metadata>
  <defs
     id="defs9">
    <linearGradient
       inkscape:collect="always"
       id="linearGradient991">
      <stop
         style="stop-color:#000000;stop-opacity:1;"
         offset="0"
         id="stop987" />
      <stop
         style="stop-color:#000000;stop-opacity:0;"
         offset="1"
         id="stop989" />
    </linearGradient>
    <linearGradient
       inkscape:collect="always"
       xlink:href="#linearGradient991"
       id="linearGradient993"
       x1="-71.575469"
       y1="240.18379"
       x2="580.06053"
       y2="240.18379"
       gradientUnits="userSpaceOnUse" />
  </defs>
  <sodipodi:namedview
     pagecolor="#ffffff"
     bordercolor="#666666"
     borderopacity="1"
     objecttolerance="10"
     gridtolerance="10"
     guidetolerance="10"
     inkscape:pageopacity="0"
     inkscape:pageshadow="2"
     inkscape:window-width="1920"
     inkscape:window-height="1001"
     id="namedview7"
     showgrid="false"
     inkscape:zoom="1.5644531"
     inkscape:cx="240.78812"
     inkscape:cy="171.29586"
     inkscape:window-x="-9"
     inkscape:window-y="-9"
     inkscape:window-maximized="1"
     inkscape:current-layer="layer2"
     inkscape:document-rotation="0" />
  <g
     inkscape:groupmode="layer"
     id="layer2"
     inkscape:label="Layer 2"
     style="display:inline">
    <g
       id="g2214"
       style="fill:#f0db43;fill-opacity:1">
      <ellipse
         style="fill:#f0db43;fill-opacity:1;stroke-width:1.03774;stop-color:#000000"
         id="path2208"
         cx="275.39075"
         cy="229.86371"
         rx="163.96095"
         ry="151.38306" />
      <ellipse
         style="fill:#f0db43;fill-opacity:1;stroke-width:0.996151;stop-color:#000000"
         id="path2210"
         cx="148.0424"
         cy="304.68085"
         rx="35.975899"
         ry="46.800507" />
    </g>
  </g>
  <g
     inkscape:groupmode="layer"
     id="layer1"
     inkscape:label="Layer 1"
     style="display:inline">
    <g
       id="g975"
       transform="matrix(1.259977,0,0,1.259977,-73.64354,-109.42873)"
       style="fill:#47873d;fill-opacity:1">
      <g
         id="g846"
         transform="matrix(0.37166816,0.14344797,0,0.39412004,212.09983,120.34365)"
         style="fill-opacity:1;fill:#47873d">
        <g
           id="g844"
           style="fill-opacity:1;fill:#47873d">
          <path
             id="path842"
             style="fill:#47873d;fill-opacity:1;stroke-width:2"
             d="m 21.514531,237.33833 c 0,-25.748 4.266,-50.45188 12.024,-73.53109 L 161.15253,239.04441 33.540531,311.16326 c -7.758,-23.26878 -12.026,-48.07493 -12.026,-73.82493 z M 207.69653,467.65709 c -50.278,-10.8603 -94.68,-37.9408 -127.521999,-75.35806 L 207.69653,320.23109 Z m 0,-308.664 L 80.174531,83.809028 C 113.01653,47.194289 157.41853,21.202789 207.69653,11.567081 Z m 93.092,-146.284619 c 50.278,10.860292 94.68,37.936792 127.522,75.358053 l -127.522,72.067946 z m 0,456.085999 v -147.424 l 127.522,75.18406 c -32.842,36.61474 -77.244,62.60824 -127.522,72.23994 z m 174.158,-152.23815 -127.614,-75.23717 127.612,-72.11885 c 7.758,23.26878 12.024,48.07691 12.024,73.82491 0.002,25.75002 -4.266,50.45187 -12.022,73.53111 z M -74.459842,238.83749 c 0,58.824 18.558373,111.61298 45.942373,159.63555 0.208,0.38654 0.376,0.7866 0.596,1.17128 0.522,0.91238 1.074,1.79513 1.644,2.65809 56.782,96.54576 176.556699,152.50741 295.816699,153.96452 -66.05351,46.74125 -178.060746,75.52689 -285.169813,26.98163 l -19.918978,-9.02634 -23.810218,19.31832 c -33.133912,26.8829 -73.484721,29.6701 -91.861351,6.34267 -18.37524,-23.32579 -9.12882,-65.59715 21.05321,-96.23238 l 21.68602,-22.01481 -4.98496,-22.58694 C -140.29082,337.5733 -100.4719,294.06067 -74.459842,238.83749 M -26.893469,72.244881 C -133.6835,190.00951 -206.1928,349.08263 -187.71339,477.0519 c -36.31255,50.07655 -52.34863,143.6053 -25.63798,176.15033 34.02164,43.18742 97.8273,43.79586 163.545328,14.35062 C 78.032969,713.1021 244.43735,665.41045 403.59979,520.82243 569.86015,378.59302 570.96788,191.70446 524.85521,86.850578 478.74253,-18.003303 373.93453,-84.171838 254.24453,-85.6342 125.76994,-72.848617 26.669178,-14.233969 -26.893469,72.244881"
             sodipodi:nodetypes="scccsccccccccccccccccccccccccccccsscccccccccccc" />
        </g>
      </g>
    </g>
  </g>
  <g
     id="g848"
     transform="matrix(0.2472378,0,0,0.2472378,197.86706,232.27872)" />
  <g
     id="g850"
     transform="matrix(0.2472378,0,0,0.2472378,197.86706,232.27872)" />
  <g
     id="g852"
     transform="matrix(0.2472378,0,0,0.2472378,197.86706,232.27872)" />
  <g
     id="g854"
     transform="matrix(0.2472378,0,0,0.2472378,197.86706,232.27872)" />
  <g
     id="g856"
     transform="matrix(0.2472378,0,0,0.2472378,197.86706,232.27872)" />
  <g
     id="g858"
     transform="matrix(0.2472378,0,0,0.2472378,197.86706,232.27872)" />
  <g
     id="g860"
     transform="matrix(0.2472378,0,0,0.2472378,197.86706,232.27872)" />
  <g
     id="g862"
     transform="matrix(0.2472378,0,0,0.2472378,197.86706,232.27872)" />
  <g
     id="g864"
     transform="matrix(0.2472378,0,0,0.2472378,197.86706,232.27872)" />
  <g
     id="g866"
     transform="matrix(0.2472378,0,0,0.2472378,197.86706,232.27872)" />
  <g
     id="g868"
     transform="matrix(0.2472378,0,0,0.2472378,197.86706,232.27872)" />
  <g
     id="g870"
     transform="matrix(0.2472378,0,0,0.2472378,197.86706,232.27872)" />
  <g
     id="g872"
     transform="matrix(0.2472378,0,0,0.2472378,197.86706,232.27872)" />
  <g
     id="g874"
     transform="matrix(0.2472378,0,0,0.2472378,197.86706,232.27872)" />
  <g
     id="g876"
     transform="matrix(0.2472378,0,0,0.2472378,197.86706,232.27872)" />
</svg>
