<?xml version="1.0" encoding="UTF-8" standalone="no"?>
<svg
   xmlns:dc="http://purl.org/dc/elements/1.1/"
   xmlns:cc="http://creativecommons.org/ns#"
   xmlns:rdf="http://www.w3.org/1999/02/22-rdf-syntax-ns#"
   xmlns:svg="http://www.w3.org/2000/svg"
   xmlns="http://www.w3.org/2000/svg"
   xmlns:xlink="http://www.w3.org/1999/xlink"
   xmlns:sodipodi="http://sodipodi.sourceforge.net/DTD/sodipodi-0.dtd"
   xmlns:inkscape="http://www.inkscape.org/namespaces/inkscape"
   id="Capa_1"
   enable-background="new 0 0 510.03 510.03"
   height="366.3309"
   viewBox="0 0 377.78001 364.92139"
   width="379.2392"
   version="1.1"
   sodipodi:docname="logoFilled.svg"
   inkscape:version="1.0.1 (3bc2e813f5, 2020-09-07)">
  <metadata
     id="metadata11">
    <rdf:RDF>
      <cc:Work
         rdf:about="">
        <dc:format>image/svg+xml</dc:format>
        <dc:type
           rdf:resource="http://purl.org/dc/dcmitype/StillImage" />
        <dc:title></dc:title>
      </cc:Work>
    </rdf:RDF>
  </metadata>
  <defs
     id="defs9">
    <linearGradient
       inkscape:collect="always"
       id="linearGradient991">
      <stop
         style="stop-color:#000000;stop-opacity:1;"
         offset="0"
         id="stop987" />
      <stop
         style="stop-color:#000000;stop-opacity:0;"
         offset="1"
         id="stop989" />
    </linearGradient>
    <linearGradient
       inkscape:collect="always"
       xlink:href="#linearGradient991"
       id="linearGradient993"
       x1="-71.57547"
       y1="240.18379"
       x2="580.06055"
       y2="240.18379"
       gradientUnits="userSpaceOnUse" />
  </defs>
  <sodipodi:namedview
     pagecolor="#ffffff"
     bordercolor="#666666"
     borderopacity="1"
     objecttolerance="10"
     gridtolerance="10"
     guidetolerance="10"
     inkscape:pageopacity="0"
     inkscape:pageshadow="2"
     inkscape:window-width="1920"
     inkscape:window-height="1001"
     id="namedview7"
     showgrid="false"
     inkscape:zoom="1.1062354"
     inkscape:cx="139.7342"
     inkscape:cy="130.02634"
     inkscape:window-x="-9"
     inkscape:window-y="-9"
     inkscape:window-maximized="1"
     inkscape:current-layer="g975"
     inkscape:document-rotation="0"
     fit-margin-top="0"
     fit-margin-left="0"
     fit-margin-right="0"
     fit-margin-bottom="0" />
  <g
     id="g975"
     transform="matrix(1.259977,0,0,1.259977,-161.09938,-147.28063)">
    <g
       id="g846"
       transform="matrix(0.37166816,0.14344797,0,0.39412004,212.09983,120.34365)"
       style="fill-opacity:1">
      <g
         id="g844"
         style="fill-opacity:1">
        <path
           id="path842"
           style="fill-opacity:1;stroke-width:2"
           d="m 21.514531,237.33833 c 0,-25.748 4.266,-50.45188 12.024,-73.53109 L 161.15253,239.04441 33.540531,311.16326 c -7.758,-23.26878 -12.026,-48.07493 -12.026,-73.82493 z M 207.69653,467.65709 c -50.278,-10.8603 -94.68,-37.9408 -127.521999,-75.35806 L 207.69653,320.23109 Z m 0,-308.664 L 80.174531,83.809028 C 113.01653,47.194289 157.41853,21.202789 207.69653,11.567081 Z m 93.092,-146.284619 c 50.278,10.860292 94.68,37.936792 127.522,75.358053 l -127.522,72.067946 z m 0,456.085999 v -147.424 l 127.522,75.18406 c -32.842,36.61474 -77.244,62.60824 -127.522,72.23994 z m 174.158,-152.23815 -127.614,-75.23717 127.612,-72.11885 c 7.758,23.26878 12.024,48.07691 12.024,73.82491 0.002,25.75002 -4.266,50.45187 -12.022,73.53111 z M -26.893469,72.244881 C -133.6835,190.00951 -206.1928,349.08263 -187.71339,477.0519 c -36.31255,50.07655 -52.34863,143.6053 -25.63798,176.15033 34.02164,43.18742 97.8273,43.79586 163.545328,14.35062 127.839011,45.54925 294.243392,-2.1424 453.405832,-146.73042 46.90861,-32.17459 97.90716,-82.79043 119.50866,-119.36201 43.203,-73.14315 56.95208,-98.47182 56.95208,-157.29582 0,-58.796 -15.658,-114.18931 -43.01,-162.191501 -0.224,-0.414736 -0.404,-0.842936 -0.64,-1.251819 -0.32,-0.55591 -0.688,-1.064406 -1.026,-1.600536 -56.642,-97.124047 -161.45,-163.292582 -281.14,-164.754944 C 125.76994,-72.848617 26.669178,-14.233969 -26.893469,72.244881"
           sodipodi:nodetypes="scccscccccccccccccccccccccccccccsccccc" />
      </g>
    </g>
  </g>
  <g
     id="g848"
     transform="matrix(0.2472378,0,0,0.2472378,115.85347,172.72595)" />
  <g
     id="g850"
     transform="matrix(0.2472378,0,0,0.2472378,115.85347,172.72595)" />
  <g
     id="g852"
     transform="matrix(0.2472378,0,0,0.2472378,115.85347,172.72595)" />
  <g
     id="g854"
     transform="matrix(0.2472378,0,0,0.2472378,115.85347,172.72595)" />
  <g
     id="g856"
     transform="matrix(0.2472378,0,0,0.2472378,115.85347,172.72595)" />
  <g
     id="g858"
     transform="matrix(0.2472378,0,0,0.2472378,115.85347,172.72595)" />
  <g
     id="g860"
     transform="matrix(0.2472378,0,0,0.2472378,115.85347,172.72595)" />
  <g
     id="g862"
     transform="matrix(0.2472378,0,0,0.2472378,115.85347,172.72595)" />
  <g
     id="g864"
     transform="matrix(0.2472378,0,0,0.2472378,115.85347,172.72595)" />
  <g
     id="g866"
     transform="matrix(0.2472378,0,0,0.2472378,115.85347,172.72595)" />
  <g
     id="g868"
     transform="matrix(0.2472378,0,0,0.2472378,115.85347,172.72595)" />
  <g
     id="g870"
     transform="matrix(0.2472378,0,0,0.2472378,115.85347,172.72595)" />
  <g
     id="g872"
     transform="matrix(0.2472378,0,0,0.2472378,115.85347,172.72595)" />
  <g
     id="g874"
     transform="matrix(0.2472378,0,0,0.2472378,115.85347,172.72595)" />
  <g
     id="g876"
     transform="matrix(0.2472378,0,0,0.2472378,115.85347,172.72595)" />
</svg>
