<?xml version="1.0" encoding="UTF-8" standalone="no"?>
<svg
   xmlns:dc="http://purl.org/dc/elements/1.1/"
   xmlns:cc="http://creativecommons.org/ns#"
   xmlns:rdf="http://www.w3.org/1999/02/22-rdf-syntax-ns#"
   xmlns:svg="http://www.w3.org/2000/svg"
   xmlns="http://www.w3.org/2000/svg"
   xmlns:sodipodi="http://sodipodi.sourceforge.net/DTD/sodipodi-0.dtd"
   xmlns:inkscape="http://www.inkscape.org/namespaces/inkscape"
   version="1.1"
   id="Layer_1"
   x="0px"
   y="0px"
   viewBox="0 0 512 512"
   style="enable-background:new 0 0 512 512;"
   xml:space="preserve"
   sodipodi:docname="previous.svg"
   inkscape:version="1.0.1 (3bc2e813f5, 2020-09-07)"><metadata
   id="metadata1420"><rdf:RDF><cc:Work
       rdf:about=""><dc:format>image/svg+xml</dc:format><dc:type
         rdf:resource="http://purl.org/dc/dcmitype/StillImage" /></cc:Work></rdf:RDF></metadata><defs
   id="defs1418" /><sodipodi:namedview
   pagecolor="#ffffff"
   bordercolor="#666666"
   borderopacity="1"
   objecttolerance="10"
   gridtolerance="10"
   guidetolerance="10"
   inkscape:pageopacity="0"
   inkscape:pageshadow="2"
   inkscape:window-width="1920"
   inkscape:window-height="1016"
   id="namedview1416"
   showgrid="false"
   inkscape:zoom="1.6835938"
   inkscape:cx="141.66125"
   inkscape:cy="256"
   inkscape:window-x="0"
   inkscape:window-y="27"
   inkscape:window-maximized="1"
   inkscape:current-layer="layer4" />

<g
   inkscape:groupmode="layer"
   id="layer4"
   inkscape:label="Layer 2"><ellipse
     style="fill:#f0db43;fill-opacity:1"
     id="path1427"
     cx="257.7251"
     cy="260.90897"
     rx="154.38786"
     ry="172.0322" /></g><g
   id="g1385">
</g>
<g
   id="g1387">
</g>
<g
   id="g1389">
</g>
<g
   id="g1391">
</g>
<g
   id="g1393">
</g>
<g
   id="g1395">
</g>
<g
   id="g1397">
</g>
<g
   id="g1399">
</g>
<g
   id="g1401">
</g>
<g
   id="g1403">
</g>
<g
   id="g1405">
</g>
<g
   id="g1407">
</g>
<g
   id="g1409">
</g>
<g
   id="g1411">
</g>
<g
   id="g1413">
</g>
<g
   inkscape:groupmode="layer"
   id="layer3"
   inkscape:label="Layer 1"><g
     id="g1383"
     style="enable-background:new 0 0 512 512">
	<g
   id="g1381">
		<path
   d="M256,0C114.837,0,0,114.837,0,256s114.837,256,256,256s256-114.837,256-256S397.163,0,256,0z M313.749,347.584    c8.341,8.341,8.341,21.824,0,30.165c-4.16,4.16-9.621,6.251-15.083,6.251c-5.461,0-10.923-2.091-15.083-6.251L176.917,271.083    c-8.341-8.341-8.341-21.824,0-30.165l106.667-106.667c8.341-8.341,21.824-8.341,30.165,0s8.341,21.824,0,30.165L222.165,256    L313.749,347.584z"
   id="path1379" />
	</g>
</g></g></svg>
